<?xml version="1.0" encoding="UTF-8" standalone="no"?>
<!DOCTYPE svg PUBLIC "-//W3C//DTD SVG 1.1//EN"
 "http://www.w3.org/Graphics/SVG/1.1/DTD/svg11.dtd">
<!-- Generated by graphviz version 5.0.0 (20220707.1540)
 -->
<!-- Title: dependencies Pages: 1 -->
<svg width="757pt" height="247pt"
 viewBox="0.00 0.00 757.00 246.80" xmlns="http://www.w3.org/2000/svg" xmlns:xlink="http://www.w3.org/1999/xlink">
<g id="graph0" class="graph" transform="scale(1 1) rotate(0) translate(4 242.8)">
<title>dependencies</title>
<polygon fill="white" stroke="transparent" points="-4,4 -4,-242.8 753,-242.8 753,4 -4,4"/>
<text text-anchor="middle" x="374.5" y="-8.2" font-family="sans-serif" font-size="14.00">dependencies</text>
<g id="clust1" class="cluster">
<title>cluster_SharedModule</title>
<polygon fill="none" stroke="black" stroke-dasharray="1,5" points="8,-32.8 8,-230.8 741,-230.8 741,-32.8 8,-32.8"/>
</g>
<g id="clust9" class="cluster">
<title>cluster_SharedModule_exports</title>
<polygon fill="none" stroke="black" points="75,-170.8 75,-222.8 675,-222.8 675,-170.8 75,-170.8"/>
</g>
<g id="clust2" class="cluster">
<title>cluster_SharedModule_declarations</title>
<polygon fill="none" stroke="black" points="16,-40.8 16,-92.8 733,-92.8 733,-40.8 16,-40.8"/>
</g>
<!-- CookieBarComponent -->
<g id="node1" class="node">
<title>CookieBarComponent</title>
<polygon fill="#ffffb3" stroke="black" points="724.99,-84.8 583.01,-84.8 583.01,-48.8 724.99,-48.8 724.99,-84.8"/>
<text text-anchor="middle" x="654" y="-62.6" font-family="Times,serif" font-size="14.00">CookieBarComponent</text>
</g>
<!-- SharedModule -->
<g id="node6" class="node">
<title>SharedModule</title>
<polygon fill="#8dd3c7" stroke="black" points="412.43,-149.8 409.43,-153.8 388.43,-153.8 385.43,-149.8 313.57,-149.8 313.57,-113.8 412.43,-113.8 412.43,-149.8"/>
<text text-anchor="middle" x="363" y="-127.6" font-family="Times,serif" font-size="14.00">SharedModule</text>
</g>
<!-- CookieBarComponent&#45;&gt;SharedModule -->
<g id="edge1" class="edge">
<title>CookieBarComponent&#45;&gt;SharedModule</title>
<path fill="none" stroke="black" d="M624.88,-84.91C624.88,-104.14 624.88,-131.8 624.88,-131.8 624.88,-131.8 422.26,-131.8 422.26,-131.8"/>
<polygon fill="black" stroke="black" points="422.26,-128.3 412.26,-131.8 422.26,-135.3 422.26,-128.3"/>
</g>
<!-- CookiesComponent -->
<g id="node2" class="node">
<title>CookiesComponent</title>
<polygon fill="#ffffb3" stroke="black" points="564.72,-84.8 437.28,-84.8 437.28,-48.8 564.72,-48.8 564.72,-84.8"/>
<text text-anchor="middle" x="501" y="-62.6" font-family="Times,serif" font-size="14.00">CookiesComponent</text>
</g>
<!-- CookiesComponent&#45;&gt;SharedModule -->
<g id="edge2" class="edge">
<title>CookiesComponent&#45;&gt;SharedModule</title>
<path fill="none" stroke="black" d="M470.38,-84.83C470.38,-101.2 470.38,-122.8 470.38,-122.8 470.38,-122.8 422.29,-122.8 422.29,-122.8"/>
<polygon fill="black" stroke="black" points="422.29,-119.3 412.29,-122.8 422.29,-126.3 422.29,-119.3"/>
</g>
<!-- LegalComponent -->
<g id="node3" class="node">
<title>LegalComponent</title>
<polygon fill="#ffffb3" stroke="black" points="419.7,-84.8 306.3,-84.8 306.3,-48.8 419.7,-48.8 419.7,-84.8"/>
<text text-anchor="middle" x="363" y="-62.6" font-family="Times,serif" font-size="14.00">LegalComponent</text>
</g>
<!-- LegalComponent&#45;&gt;SharedModule -->
<g id="edge3" class="edge">
<title>LegalComponent&#45;&gt;SharedModule</title>
<path fill="none" stroke="black" d="M363,-84.91C363,-84.91 363,-103.79 363,-103.79"/>
<polygon fill="black" stroke="black" points="359.5,-103.79 363,-113.79 366.5,-103.79 359.5,-103.79"/>
</g>
<!-- NavbarComponent -->
<g id="node4" class="node">
<title>NavbarComponent</title>
<polygon fill="#ffffb3" stroke="black" points="288.03,-84.8 165.97,-84.8 165.97,-48.8 288.03,-48.8 288.03,-84.8"/>
<text text-anchor="middle" x="227" y="-62.6" font-family="Times,serif" font-size="14.00">NavbarComponent</text>
</g>
<!-- NavbarComponent&#45;&gt;SharedModule -->
<g id="edge4" class="edge">
<title>NavbarComponent&#45;&gt;SharedModule</title>
<path fill="none" stroke="black" d="M258.62,-84.83C258.62,-101.2 258.62,-122.8 258.62,-122.8 258.62,-122.8 303.56,-122.8 303.56,-122.8"/>
<polygon fill="black" stroke="black" points="303.56,-126.3 313.56,-122.8 303.56,-119.3 303.56,-126.3"/>
</g>
<!-- PrivacyComponent -->
<g id="node5" class="node">
<title>PrivacyComponent</title>
<polygon fill="#ffffb3" stroke="black" points="148.1,-84.8 23.9,-84.8 23.9,-48.8 148.1,-48.8 148.1,-84.8"/>
<text text-anchor="middle" x="86" y="-62.6" font-family="Times,serif" font-size="14.00">PrivacyComponent</text>
</g>
<!-- PrivacyComponent&#45;&gt;SharedModule -->
<g id="edge5" class="edge">
<title>PrivacyComponent&#45;&gt;SharedModule</title>
<path fill="none" stroke="black" d="M115.62,-84.91C115.62,-104.14 115.62,-131.8 115.62,-131.8 115.62,-131.8 303.53,-131.8 303.53,-131.8"/>
<polygon fill="black" stroke="black" points="303.53,-135.3 313.53,-131.8 303.53,-128.3 303.53,-135.3"/>
</g>
<!-- CookieBarComponent  -->
<g id="node7" class="node">
<title>CookieBarComponent </title>
<polygon fill="#fb8072" stroke="black" points="666.99,-214.8 521.01,-214.8 521.01,-178.8 666.99,-178.8 666.99,-214.8"/>
<text text-anchor="middle" x="594" y="-192.6" font-family="Times,serif" font-size="14.00">CookieBarComponent </text>
</g>
<!-- SharedModule&#45;&gt;CookieBarComponent  -->
<g id="edge6" class="edge">
<title>SharedModule&#45;&gt;CookieBarComponent </title>
<path fill="none" stroke="black" stroke-dasharray="5,2" d="M412.64,-140.8C465.9,-140.8 542.93,-140.8 542.93,-140.8 542.93,-140.8 542.93,-168.77 542.93,-168.77"/>
<polygon fill="black" stroke="black" points="539.43,-168.77 542.93,-178.77 546.43,-168.77 539.43,-168.77"/>
</g>
<!-- CookiesComponent  -->
<g id="node8" class="node">
<title>CookiesComponent </title>
<polygon fill="#fb8072" stroke="black" points="503.22,-214.8 372.78,-214.8 372.78,-178.8 503.22,-178.8 503.22,-214.8"/>
<text text-anchor="middle" x="438" y="-192.6" font-family="Times,serif" font-size="14.00">CookiesComponent </text>
</g>
<!-- SharedModule&#45;&gt;CookiesComponent  -->
<g id="edge7" class="edge">
<title>SharedModule&#45;&gt;CookiesComponent </title>
<path fill="none" stroke="black" stroke-dasharray="5,2" d="M392.43,-149.91C392.43,-149.91 392.43,-168.79 392.43,-168.79"/>
<polygon fill="black" stroke="black" points="388.93,-168.79 392.43,-178.79 395.93,-168.79 388.93,-168.79"/>
</g>
<!-- NavbarComponent  -->
<g id="node9" class="node">
<title>NavbarComponent </title>
<polygon fill="#fb8072" stroke="black" points="355.03,-214.8 228.97,-214.8 228.97,-178.8 355.03,-178.8 355.03,-214.8"/>
<text text-anchor="middle" x="292" y="-192.6" font-family="Times,serif" font-size="14.00">NavbarComponent </text>
</g>
<!-- SharedModule&#45;&gt;NavbarComponent  -->
<g id="edge8" class="edge">
<title>SharedModule&#45;&gt;NavbarComponent </title>
<path fill="none" stroke="black" stroke-dasharray="5,2" d="M334.4,-149.91C334.4,-149.91 334.4,-168.79 334.4,-168.79"/>
<polygon fill="black" stroke="black" points="330.9,-168.79 334.4,-178.79 337.9,-168.79 330.9,-168.79"/>
</g>
<!-- PrivacyComponent  -->
<g id="node10" class="node">
<title>PrivacyComponent </title>
<polygon fill="#fb8072" stroke="black" points="210.6,-214.8 83.4,-214.8 83.4,-178.8 210.6,-178.8 210.6,-214.8"/>
<text text-anchor="middle" x="147" y="-192.6" font-family="Times,serif" font-size="14.00">PrivacyComponent </text>
</g>
<!-- SharedModule&#45;&gt;PrivacyComponent  -->
<g id="edge9" class="edge">
<title>SharedModule&#45;&gt;PrivacyComponent </title>
<path fill="none" stroke="black" stroke-dasharray="5,2" d="M313.4,-140.8C261.74,-140.8 188.27,-140.8 188.27,-140.8 188.27,-140.8 188.27,-168.77 188.27,-168.77"/>
<polygon fill="black" stroke="black" points="184.77,-168.77 188.27,-178.77 191.77,-168.77 184.77,-168.77"/>
</g>
</g>
</svg>
