<?xml version="1.0" encoding="UTF-8" standalone="no"?>
<!DOCTYPE svg PUBLIC "-//W3C//DTD SVG 1.1//EN"
 "http://www.w3.org/Graphics/SVG/1.1/DTD/svg11.dtd">
<!-- Generated by graphviz version 5.0.0 (20220707.1540)
 -->
<!-- Title: dependencies Pages: 1 -->
<svg width="532pt" height="247pt"
 viewBox="0.00 0.00 532.00 246.80" xmlns="http://www.w3.org/2000/svg" xmlns:xlink="http://www.w3.org/1999/xlink">
<g id="graph0" class="graph" transform="scale(1 1) rotate(0) translate(4 242.8)">
<title>dependencies</title>
<polygon fill="white" stroke="transparent" points="-4,4 -4,-242.8 528,-242.8 528,4 -4,4"/>
<text text-anchor="middle" x="262" y="-8.2" font-family="sans-serif" font-size="14.00">dependencies</text>
<g id="clust1" class="cluster">
<title>cluster_AppModule</title>
<polygon fill="none" stroke="black" stroke-dasharray="1,5" points="8,-32.8 8,-230.8 516,-230.8 516,-32.8 8,-32.8"/>
</g>
<g id="clust2" class="cluster">
<title>cluster_AppModule_declarations</title>
<polygon fill="none" stroke="black" points="386,-40.8 386,-92.8 508,-92.8 508,-40.8 386,-40.8"/>
</g>
<g id="clust4" class="cluster">
<title>cluster_AppModule_imports</title>
<polygon fill="none" stroke="black" points="16,-40.8 16,-92.8 378,-92.8 378,-40.8 16,-40.8"/>
</g>
<g id="clust6" class="cluster">
<title>cluster_AppModule_bootstrap</title>
<polygon fill="none" stroke="black" points="182,-170.8 182,-222.8 306,-222.8 306,-170.8 182,-170.8"/>
</g>
<!-- AppComponent -->
<g id="node1" class="node">
<title>AppComponent</title>
<polygon fill="#ffffb3" stroke="black" points="499.94,-84.8 394.06,-84.8 394.06,-48.8 499.94,-48.8 499.94,-84.8"/>
<text text-anchor="middle" x="447" y="-62.6" font-family="Times,serif" font-size="14.00">AppComponent</text>
</g>
<!-- AppModule -->
<g id="node2" class="node">
<title>AppModule</title>
<polygon fill="#8dd3c7" stroke="black" points="285.66,-149.8 282.66,-153.8 261.66,-153.8 258.66,-149.8 202.34,-149.8 202.34,-113.8 285.66,-113.8 285.66,-149.8"/>
<text text-anchor="middle" x="244" y="-127.6" font-family="Times,serif" font-size="14.00">AppModule</text>
</g>
<!-- AppComponent&#45;&gt;AppModule -->
<g id="edge1" class="edge">
<title>AppComponent&#45;&gt;AppModule</title>
<path fill="none" stroke="black" d="M447,-84.91C447,-104.14 447,-131.8 447,-131.8 447,-131.8 296.06,-131.8 296.06,-131.8"/>
<polygon fill="black" stroke="black" points="296.06,-128.3 286.06,-131.8 296.06,-135.3 296.06,-128.3"/>
</g>
<!-- AppComponent  -->
<g id="node6" class="node">
<title>AppComponent </title>
<polygon fill="#80b1d3" stroke="black" points="298.44,-214.8 189.56,-214.8 189.56,-178.8 298.44,-178.8 298.44,-214.8"/>
<text text-anchor="middle" x="244" y="-192.6" font-family="Times,serif" font-size="14.00">AppComponent </text>
</g>
<!-- AppModule&#45;&gt;AppComponent  -->
<g id="edge5" class="edge">
<title>AppModule&#45;&gt;AppComponent </title>
<path fill="none" stroke="black" stroke-dasharray="1,5" d="M244,-149.91C244,-149.91 244,-168.79 244,-168.79"/>
<polygon fill="black" stroke="black" points="240.5,-168.79 244,-178.79 247.5,-168.79 240.5,-168.79"/>
</g>
<!-- AppRoutingModule -->
<g id="node3" class="node">
<title>AppRoutingModule</title>
<polygon fill="#8dd3c7" stroke="black" points="370.28,-84.8 367.28,-88.8 346.28,-88.8 343.28,-84.8 241.72,-84.8 241.72,-48.8 370.28,-48.8 370.28,-84.8"/>
<text text-anchor="middle" x="306" y="-62.6" font-family="Times,serif" font-size="14.00">AppRoutingModule</text>
</g>
<!-- AppRoutingModule&#45;&gt;AppModule -->
<g id="edge2" class="edge">
<title>AppRoutingModule&#45;&gt;AppModule</title>
<path fill="none" stroke="black" d="M263.72,-84.91C263.72,-84.91 263.72,-103.79 263.72,-103.79"/>
<polygon fill="black" stroke="black" points="260.22,-103.79 263.72,-113.79 267.22,-103.79 260.22,-103.79"/>
</g>
<!-- GifsModule -->
<g id="node4" class="node">
<title>GifsModule</title>
<polygon fill="#8dd3c7" stroke="black" points="223.66,-84.8 220.66,-88.8 199.66,-88.8 196.66,-84.8 140.34,-84.8 140.34,-48.8 223.66,-48.8 223.66,-84.8"/>
<text text-anchor="middle" x="182" y="-62.6" font-family="Times,serif" font-size="14.00">GifsModule</text>
</g>
<!-- GifsModule&#45;&gt;AppModule -->
<g id="edge3" class="edge">
<title>GifsModule&#45;&gt;AppModule</title>
<path fill="none" stroke="black" d="M213,-84.91C213,-84.91 213,-103.79 213,-103.79"/>
<polygon fill="black" stroke="black" points="209.5,-103.79 213,-113.79 216.5,-103.79 209.5,-103.79"/>
</g>
<!-- SharedModule -->
<g id="node5" class="node">
<title>SharedModule</title>
<polygon fill="#8dd3c7" stroke="black" points="122.43,-84.8 119.43,-88.8 98.43,-88.8 95.43,-84.8 23.57,-84.8 23.57,-48.8 122.43,-48.8 122.43,-84.8"/>
<text text-anchor="middle" x="73" y="-62.6" font-family="Times,serif" font-size="14.00">SharedModule</text>
</g>
<!-- SharedModule&#45;&gt;AppModule -->
<g id="edge4" class="edge">
<title>SharedModule&#45;&gt;AppModule</title>
<path fill="none" stroke="black" d="M73,-84.91C73,-104.14 73,-131.8 73,-131.8 73,-131.8 192.17,-131.8 192.17,-131.8"/>
<polygon fill="black" stroke="black" points="192.17,-135.3 202.17,-131.8 192.17,-128.3 192.17,-135.3"/>
</g>
</g>
</svg>
