<?xml version="1.0" encoding="UTF-8" standalone="no"?>
<!DOCTYPE svg PUBLIC "-//W3C//DTD SVG 1.1//EN"
 "http://www.w3.org/Graphics/SVG/1.1/DTD/svg11.dtd">
<!-- Generated by graphviz version 5.0.0 (20220707.1540)
 -->
<!-- Title: dependencies Pages: 1 -->
<svg width="1368pt" height="329pt"
 viewBox="0.00 0.00 1368.00 328.80" xmlns="http://www.w3.org/2000/svg" xmlns:xlink="http://www.w3.org/1999/xlink">
<g id="graph0" class="graph" transform="scale(1 1) rotate(0) translate(4 324.8)">
<title>dependencies</title>
<polygon fill="white" stroke="transparent" points="-4,4 -4,-324.8 1364,-324.8 1364,4 -4,4"/>
<text text-anchor="middle" x="680" y="-8.2" font-family="sans-serif" font-size="14.00">dependencies</text>
<g id="clust1" class="cluster">
<title>cluster_AppModule</title>
<polygon fill="none" stroke="black" stroke-dasharray="1,5" points="499,-108.8 499,-312.8 1008,-312.8 1008,-108.8 499,-108.8"/>
</g>
<g id="clust2" class="cluster">
<title>cluster_AppModule_declarations</title>
<polygon fill="none" stroke="black" points="507,-116.8 507,-168.8 629,-168.8 629,-116.8 507,-116.8"/>
</g>
<g id="clust4" class="cluster">
<title>cluster_AppModule_imports</title>
<polygon fill="none" stroke="black" points="637,-116.8 637,-168.8 1000,-168.8 1000,-116.8 637,-116.8"/>
</g>
<g id="clust6" class="cluster">
<title>cluster_AppModule_bootstrap</title>
<polygon fill="none" stroke="black" points="698,-252.8 698,-304.8 822,-304.8 822,-252.8 698,-252.8"/>
</g>
<g id="clust14" class="cluster">
<title>cluster_GifsModule</title>
<polygon fill="none" stroke="black" stroke-dasharray="1,5" points="1016,-176.8 1016,-244.8 1352,-244.8 1352,-176.8 1016,-176.8"/>
</g>
<g id="clust15" class="cluster">
<title>cluster_GifsModule_declarations</title>
<polygon fill="none" stroke="black" points="1190,-184.8 1190,-236.8 1344,-236.8 1344,-184.8 1190,-184.8"/>
</g>
<g id="clust18" class="cluster">
<title>cluster_GifsModule_exports</title>
<polygon fill="none" stroke="black" points="1024,-184.8 1024,-236.8 1182,-236.8 1182,-184.8 1024,-184.8"/>
</g>
<g id="clust21" class="cluster">
<title>cluster_SharedModule</title>
<polygon fill="none" stroke="black" stroke-dasharray="1,5" points="8,-32.8 8,-100.8 1349,-100.8 1349,-32.8 8,-32.8"/>
</g>
<g id="clust22" class="cluster">
<title>cluster_SharedModule_declarations</title>
<polygon fill="none" stroke="black" points="624,-40.8 624,-92.8 1341,-92.8 1341,-40.8 624,-40.8"/>
</g>
<g id="clust29" class="cluster">
<title>cluster_SharedModule_exports</title>
<polygon fill="none" stroke="black" points="16,-40.8 16,-92.8 616,-92.8 616,-40.8 16,-40.8"/>
</g>
<!-- AppComponent -->
<g id="node1" class="node">
<title>AppComponent</title>
<polygon fill="#ffffb3" stroke="black" points="620.94,-160.8 515.06,-160.8 515.06,-124.8 620.94,-124.8 620.94,-160.8"/>
<text text-anchor="middle" x="568" y="-138.6" font-family="Times,serif" font-size="14.00">AppComponent</text>
</g>
<!-- AppModule -->
<g id="node2" class="node">
<title>AppModule</title>
<polygon fill="#8dd3c7" stroke="black" points="801.66,-228.8 798.66,-232.8 777.66,-232.8 774.66,-228.8 718.34,-228.8 718.34,-192.8 801.66,-192.8 801.66,-228.8"/>
<text text-anchor="middle" x="760" y="-206.6" font-family="Times,serif" font-size="14.00">AppModule</text>
</g>
<!-- AppComponent&#45;&gt;AppModule -->
<g id="edge1" class="edge">
<title>AppComponent&#45;&gt;AppModule</title>
<path fill="none" stroke="black" d="M568,-161.02C568,-181.17 568,-210.8 568,-210.8 568,-210.8 707.86,-210.8 707.86,-210.8"/>
<polygon fill="black" stroke="black" points="707.86,-214.3 717.86,-210.8 707.86,-207.3 707.86,-214.3"/>
</g>
<!-- AppComponent  -->
<g id="node6" class="node">
<title>AppComponent </title>
<polygon fill="#80b1d3" stroke="black" points="814.44,-296.8 705.56,-296.8 705.56,-260.8 814.44,-260.8 814.44,-296.8"/>
<text text-anchor="middle" x="760" y="-274.6" font-family="Times,serif" font-size="14.00">AppComponent </text>
</g>
<!-- AppModule&#45;&gt;AppComponent  -->
<g id="edge5" class="edge">
<title>AppModule&#45;&gt;AppComponent </title>
<path fill="none" stroke="black" stroke-dasharray="1,5" d="M760,-229.02C760,-229.02 760,-250.53 760,-250.53"/>
<polygon fill="black" stroke="black" points="756.5,-250.53 760,-260.53 763.5,-250.53 756.5,-250.53"/>
</g>
<!-- AppRoutingModule -->
<g id="node3" class="node">
<title>AppRoutingModule</title>
<polygon fill="#8dd3c7" stroke="black" points="890.28,-160.8 887.28,-164.8 866.28,-164.8 863.28,-160.8 761.72,-160.8 761.72,-124.8 890.28,-124.8 890.28,-160.8"/>
<text text-anchor="middle" x="826" y="-138.6" font-family="Times,serif" font-size="14.00">AppRoutingModule</text>
</g>
<!-- AppRoutingModule&#45;&gt;AppModule -->
<g id="edge2" class="edge">
<title>AppRoutingModule&#45;&gt;AppModule</title>
<path fill="none" stroke="black" d="M781.72,-161.02C781.72,-161.02 781.72,-182.53 781.72,-182.53"/>
<polygon fill="black" stroke="black" points="778.22,-182.53 781.72,-192.53 785.22,-182.53 778.22,-182.53"/>
</g>
<!-- GifsModule -->
<g id="node4" class="node">
<title>GifsModule</title>
<polygon fill="#8dd3c7" stroke="black" points="991.66,-160.8 988.66,-164.8 967.66,-164.8 964.66,-160.8 908.34,-160.8 908.34,-124.8 991.66,-124.8 991.66,-160.8"/>
<text text-anchor="middle" x="950" y="-138.6" font-family="Times,serif" font-size="14.00">GifsModule</text>
</g>
<!-- GifsModule&#45;&gt;AppModule -->
<g id="edge3" class="edge">
<title>GifsModule&#45;&gt;AppModule</title>
<path fill="none" stroke="black" d="M950,-161.02C950,-181.17 950,-210.8 950,-210.8 950,-210.8 811.7,-210.8 811.7,-210.8"/>
<polygon fill="black" stroke="black" points="811.7,-207.3 801.7,-210.8 811.7,-214.3 811.7,-207.3"/>
</g>
<!-- GifsCardsComponent  -->
<g id="node8" class="node">
<title>GifsCardsComponent </title>
<polygon fill="#fb8072" stroke="black" points="1173.6,-228.8 1032.4,-228.8 1032.4,-192.8 1173.6,-192.8 1173.6,-228.8"/>
<text text-anchor="middle" x="1103" y="-206.6" font-family="Times,serif" font-size="14.00">GifsCardsComponent </text>
</g>
<!-- GifsModule&#45;&gt;GifsCardsComponent  -->
<g id="edge7" class="edge">
<title>GifsModule&#45;&gt;GifsCardsComponent </title>
<path fill="none" stroke="black" stroke-dasharray="5,2" d="M991.8,-148.8C1014.83,-148.8 1038.79,-148.8 1038.79,-148.8 1038.79,-148.8 1038.79,-182.53 1038.79,-182.53"/>
<polygon fill="black" stroke="black" points="1035.29,-182.53 1038.79,-192.53 1042.29,-182.53 1035.29,-182.53"/>
</g>
<!-- SharedModule -->
<g id="node5" class="node">
<title>SharedModule</title>
<polygon fill="#8dd3c7" stroke="black" points="743.43,-160.8 740.43,-164.8 719.43,-164.8 716.43,-160.8 644.57,-160.8 644.57,-124.8 743.43,-124.8 743.43,-160.8"/>
<text text-anchor="middle" x="694" y="-138.6" font-family="Times,serif" font-size="14.00">SharedModule</text>
</g>
<!-- SharedModule&#45;&gt;AppModule -->
<g id="edge4" class="edge">
<title>SharedModule&#45;&gt;AppModule</title>
<path fill="none" stroke="black" d="M730.69,-161.02C730.69,-161.02 730.69,-182.53 730.69,-182.53"/>
<polygon fill="black" stroke="black" points="727.19,-182.53 730.69,-192.53 734.19,-182.53 727.19,-182.53"/>
</g>
<!-- CookieBarComponent  -->
<g id="node14" class="node">
<title>CookieBarComponent </title>
<polygon fill="#fb8072" stroke="black" points="607.99,-84.8 462.01,-84.8 462.01,-48.8 607.99,-48.8 607.99,-84.8"/>
<text text-anchor="middle" x="535" y="-62.6" font-family="Times,serif" font-size="14.00">CookieBarComponent </text>
</g>
<!-- SharedModule&#45;&gt;CookieBarComponent  -->
<g id="edge13" class="edge">
<title>SharedModule&#45;&gt;CookieBarComponent </title>
<path fill="none" stroke="black" stroke-dasharray="5,2" d="M644.47,-142.8C634.15,-142.8 626.34,-142.8 626.34,-142.8 626.34,-142.8 626.34,-66.8 626.34,-66.8 626.34,-66.8 617.85,-66.8 617.85,-66.8"/>
<polygon fill="black" stroke="black" points="617.85,-63.3 607.85,-66.8 617.85,-70.3 617.85,-63.3"/>
</g>
<!-- CookiesComponent  -->
<g id="node15" class="node">
<title>CookiesComponent </title>
<polygon fill="#fb8072" stroke="black" points="444.22,-84.8 313.78,-84.8 313.78,-48.8 444.22,-48.8 444.22,-84.8"/>
<text text-anchor="middle" x="379" y="-62.6" font-family="Times,serif" font-size="14.00">CookiesComponent </text>
</g>
<!-- SharedModule&#45;&gt;CookiesComponent  -->
<g id="edge14" class="edge">
<title>SharedModule&#45;&gt;CookiesComponent </title>
<path fill="none" stroke="black" stroke-dasharray="5,2" d="M677.6,-124.56C677.6,-109.23 677.6,-89.8 677.6,-89.8 677.6,-89.8 379,-89.8 379,-89.8 379,-89.8 379,-89.31 379,-89.31"/>
<polygon fill="black" stroke="black" points="382.5,-94.92 379,-84.92 375.5,-94.92 382.5,-94.92"/>
</g>
<!-- NavbarComponent  -->
<g id="node16" class="node">
<title>NavbarComponent </title>
<polygon fill="#fb8072" stroke="black" points="296.03,-84.8 169.97,-84.8 169.97,-48.8 296.03,-48.8 296.03,-84.8"/>
<text text-anchor="middle" x="233" y="-62.6" font-family="Times,serif" font-size="14.00">NavbarComponent </text>
</g>
<!-- SharedModule&#45;&gt;NavbarComponent  -->
<g id="edge15" class="edge">
<title>SharedModule&#45;&gt;NavbarComponent </title>
<path fill="none" stroke="black" stroke-dasharray="5,2" d="M666.66,-124.65C666.66,-111.06 666.66,-94.8 666.66,-94.8 666.66,-94.8 233,-94.8 233,-94.8 233,-94.8 233,-93.82 233,-93.82"/>
<polygon fill="black" stroke="black" points="236.5,-95.01 233,-85.01 229.5,-95.01 236.5,-95.01"/>
</g>
<!-- PrivacyComponent  -->
<g id="node17" class="node">
<title>PrivacyComponent </title>
<polygon fill="#fb8072" stroke="black" points="151.6,-84.8 24.4,-84.8 24.4,-48.8 151.6,-48.8 151.6,-84.8"/>
<text text-anchor="middle" x="88" y="-62.6" font-family="Times,serif" font-size="14.00">PrivacyComponent </text>
</g>
<!-- SharedModule&#45;&gt;PrivacyComponent  -->
<g id="edge16" class="edge">
<title>SharedModule&#45;&gt;PrivacyComponent </title>
<path fill="none" stroke="black" stroke-dasharray="5,2" d="M655.72,-124.31C655.72,-112.66 655.72,-99.8 655.72,-99.8 655.72,-99.8 88,-99.8 88,-99.8 88,-99.8 88,-94.84 88,-94.84"/>
<polygon fill="black" stroke="black" points="91.5,-94.84 88,-84.84 84.5,-94.84 91.5,-94.84"/>
</g>
<!-- GifsCardsComponent -->
<g id="node7" class="node">
<title>GifsCardsComponent</title>
<polygon fill="#ffffb3" stroke="black" points="1336.1,-228.8 1197.9,-228.8 1197.9,-192.8 1336.1,-192.8 1336.1,-228.8"/>
<text text-anchor="middle" x="1267" y="-206.6" font-family="Times,serif" font-size="14.00">GifsCardsComponent</text>
</g>
<!-- GifsCardsComponent&#45;&gt;GifsModule -->
<g id="edge6" class="edge">
<title>GifsCardsComponent&#45;&gt;GifsModule</title>
<path fill="none" stroke="black" d="M1287.98,-192.51C1287.98,-170.59 1287.98,-136.8 1287.98,-136.8 1287.98,-136.8 1001.78,-136.8 1001.78,-136.8"/>
<polygon fill="black" stroke="black" points="1001.78,-133.3 991.78,-136.8 1001.78,-140.3 1001.78,-133.3"/>
</g>
<!-- CookieBarComponent -->
<g id="node9" class="node">
<title>CookieBarComponent</title>
<polygon fill="#ffffb3" stroke="black" points="1332.99,-84.8 1191.01,-84.8 1191.01,-48.8 1332.99,-48.8 1332.99,-84.8"/>
<text text-anchor="middle" x="1262" y="-62.6" font-family="Times,serif" font-size="14.00">CookieBarComponent</text>
</g>
<!-- CookieBarComponent&#45;&gt;SharedModule -->
<g id="edge8" class="edge">
<title>CookieBarComponent&#45;&gt;SharedModule</title>
<path fill="none" stroke="black" d="M1242.96,-85.04C1242.96,-100.37 1242.96,-119.8 1242.96,-119.8 1242.96,-119.8 732.28,-119.8 732.28,-119.8 732.28,-119.8 732.28,-120.29 732.28,-120.29"/>
<polygon fill="black" stroke="black" points="728.78,-114.68 732.28,-124.68 735.78,-114.68 728.78,-114.68"/>
</g>
<!-- CookiesComponent -->
<g id="node10" class="node">
<title>CookiesComponent</title>
<polygon fill="#ffffb3" stroke="black" points="1172.72,-84.8 1045.28,-84.8 1045.28,-48.8 1172.72,-48.8 1172.72,-84.8"/>
<text text-anchor="middle" x="1109" y="-62.6" font-family="Times,serif" font-size="14.00">CookiesComponent</text>
</g>
<!-- CookiesComponent&#45;&gt;SharedModule -->
<g id="edge9" class="edge">
<title>CookiesComponent&#45;&gt;SharedModule</title>
<path fill="none" stroke="black" d="M1109,-84.95C1109,-98.54 1109,-114.8 1109,-114.8 1109,-114.8 721.34,-114.8 721.34,-114.8 721.34,-114.8 721.34,-115.78 721.34,-115.78"/>
<polygon fill="black" stroke="black" points="717.84,-114.59 721.34,-124.59 724.84,-114.59 717.84,-114.59"/>
</g>
<!-- LegalComponent -->
<g id="node11" class="node">
<title>LegalComponent</title>
<polygon fill="#ffffb3" stroke="black" points="1027.7,-84.8 914.3,-84.8 914.3,-48.8 1027.7,-48.8 1027.7,-84.8"/>
<text text-anchor="middle" x="971" y="-62.6" font-family="Times,serif" font-size="14.00">LegalComponent</text>
</g>
<!-- LegalComponent&#45;&gt;SharedModule -->
<g id="edge10" class="edge">
<title>LegalComponent&#45;&gt;SharedModule</title>
<path fill="none" stroke="black" d="M953.12,-85.29C953.12,-96.94 953.12,-109.8 953.12,-109.8 953.12,-109.8 710.4,-109.8 710.4,-109.8 710.4,-109.8 710.4,-114.76 710.4,-114.76"/>
<polygon fill="black" stroke="black" points="706.9,-114.76 710.4,-124.76 713.9,-114.76 706.9,-114.76"/>
</g>
<!-- NavbarComponent -->
<g id="node12" class="node">
<title>NavbarComponent</title>
<polygon fill="#ffffb3" stroke="black" points="896.03,-84.8 773.97,-84.8 773.97,-48.8 896.03,-48.8 896.03,-84.8"/>
<text text-anchor="middle" x="835" y="-62.6" font-family="Times,serif" font-size="14.00">NavbarComponent</text>
</g>
<!-- NavbarComponent&#45;&gt;SharedModule -->
<g id="edge11" class="edge">
<title>NavbarComponent&#45;&gt;SharedModule</title>
<path fill="none" stroke="black" d="M832.06,-84.91C832.06,-94.7 832.06,-104.8 832.06,-104.8 832.06,-104.8 699.47,-104.8 699.47,-104.8 699.47,-104.8 699.47,-114.69 699.47,-114.69"/>
<polygon fill="black" stroke="black" points="695.97,-114.69 699.47,-124.69 702.97,-114.69 695.97,-114.69"/>
</g>
<!-- PrivacyComponent -->
<g id="node13" class="node">
<title>PrivacyComponent</title>
<polygon fill="#ffffb3" stroke="black" points="756.1,-84.8 631.9,-84.8 631.9,-48.8 756.1,-48.8 756.1,-84.8"/>
<text text-anchor="middle" x="694" y="-62.6" font-family="Times,serif" font-size="14.00">PrivacyComponent</text>
</g>
<!-- PrivacyComponent&#45;&gt;SharedModule -->
<g id="edge12" class="edge">
<title>PrivacyComponent&#45;&gt;SharedModule</title>
<path fill="none" stroke="black" d="M688.53,-84.81C688.53,-84.81 688.53,-114.65 688.53,-114.65"/>
<polygon fill="black" stroke="black" points="685.03,-114.65 688.53,-124.65 692.03,-114.65 685.03,-114.65"/>
</g>
</g>
</svg>
